<svg width="326" height="320" viewBox="0 0 326 320" fill="none" xmlns="http://www.w3.org/2000/svg">
<g clip-path="url(#clip0_21_209)">
<path d="M0 0H326V320H0V0Z" fill="black"/>
<path d="M294.705 295.84C290.956 290.4 231.298 267.36 231.298 267.36L209.456 259.04L200.328 148.96H125.185L116.22 259.2L94.3778 267.52C94.3778 267.52 34.8828 290.56 30.9708 296C27.2218 301.44 25.5918 319.84 25.5918 319.84V350.4H300.247V319.68C300.084 319.84 298.617 301.28 294.705 295.84Z" fill="#8C5537"/>
<path d="M135.959 257.44C140.849 260 165.951 260 170.841 257.44C174.59 255.488 195.193 236.576 206.734 225.376L200.393 148.96H125.217L117.703 241.792C126.147 249.52 133.971 256.336 135.959 257.44Z" fill="#6D3415"/>
<path d="M300.736 350.4C300.573 340.16 300.573 329.92 300.573 319.68L300.084 319.52C300.084 319.52 300.247 319.36 300.41 319.52C300.573 319.52 300.573 319.68 300.573 319.68V319.04L300.41 318.24L300.247 316.8L299.921 313.76C299.595 311.68 299.269 309.76 298.943 307.68C298.617 305.6 298.128 303.68 297.476 301.6C296.824 299.68 296.172 297.6 295.031 295.84C293.727 294.4 291.934 293.44 290.304 292.48C288.674 291.52 286.881 290.72 285.088 289.76C281.665 288 278.079 286.4 274.493 284.8C267.321 281.6 260.312 278.56 253.14 275.68C245.968 272.64 238.796 269.76 231.624 266.88L210.434 258.56L208.478 231.52C207.826 222.4 207.011 213.12 206.359 204L204.24 176.48L201.795 148.8L201.632 147.52H200.328C187.777 147.52 175.226 147.68 162.675 147.68L125.022 148H124.207V148.8L122.251 176.32L120.132 203.84C118.828 222.08 117.198 240.32 115.568 258.56C106.44 261.92 97.312 265.28 88.347 268.8C79.219 272.32 70.091 276 60.963 279.84C56.399 281.76 51.835 283.68 47.434 285.6C42.87 287.68 38.469 289.6 34.068 292.16C32.927 292.8 31.949 293.44 30.808 294.4C30.482 294.56 30.156 295.04 29.993 295.36L29.504 296.32C29.178 296.96 28.852 297.44 28.689 298.08C27.711 300.48 27.059 302.88 26.57 305.28C25.592 310.08 24.777 314.88 24.288 319.84L24.125 350.4V351.84H25.592L94.215 352H163.001C185.821 352 208.804 351.84 231.624 351.68L300.247 350.88H300.736V350.4ZM163.001 348.8L94.378 348.64L27.222 348.8L27.059 319.84C27.548 315.04 28.037 310.4 29.015 305.6C29.504 303.36 29.993 300.96 30.808 298.88C30.971 298.4 31.297 297.76 31.46 297.44L31.786 296.8L32.275 296.32C33.09 295.68 34.068 295.04 35.209 294.4C39.284 292 43.848 289.92 48.249 287.84C52.65 285.76 57.214 283.84 61.615 281.92C70.58 278.08 79.708 274.24 88.836 270.56C97.964 266.88 107.092 263.36 116.383 259.84L116.709 259.68V259.36C118.176 240.96 119.48 222.56 121.11 204.32L123.392 176.8L125.837 150.08L162.675 150.4C174.737 150.56 186.799 150.56 199.024 150.56L201.143 176.8L203.588 204.32C204.403 213.44 205.218 222.72 206.033 231.84L208.641 259.36V259.84L209.13 260L230.972 268C238.144 270.72 245.479 273.44 252.651 276.32C259.823 279.2 266.995 282.24 274.167 285.28C277.753 286.88 281.176 288.48 284.762 290.08C286.555 290.88 288.185 291.84 289.978 292.64C291.608 293.6 293.401 294.56 294.705 295.84C295.846 297.6 296.498 299.52 296.987 301.44C297.476 303.36 297.965 305.44 298.291 307.36C298.617 309.44 298.943 311.36 299.269 313.44L299.595 316.48L299.758 317.92L299.921 318.72V319.36C299.921 329.44 299.921 339.52 299.758 349.6L231.624 348.8C208.804 348.96 185.821 348.8 163.001 348.8Z" fill="#5E2709"/>
<path d="M203.914 227.84C203.914 227.84 200.98 264.64 189.081 280.48C189.081 280.48 201.958 240.48 203.914 227.84ZM147.679 253.44C147.679 253.44 155.829 266.08 166.424 269.6C166.424 269.6 150.939 273.12 147.679 253.44ZM119.643 224C130.564 264.96 130.564 264.96 133.498 273.12C133.498 273.12 134.15 252.96 119.643 224Z" fill="#6D3415"/>
<path d="M92.7482 266.56C92.7482 266.56 42.0552 284.96 30.3192 293.28C30.3192 293.28 26.5702 296.96 24.9402 308.16C23.3102 319.36 22.6582 351.84 22.6582 351.84H302.203C302.203 351.84 301.877 325.92 300.084 311.36C298.128 296.8 296.987 296.48 295.031 294.56C293.075 292.64 250.532 272.16 232.113 266.56C232.113 266.56 229.505 301.76 166.75 304.32C103.995 306.88 93.0742 276.32 92.7482 266.56Z" fill="#386E77"/>
<path d="M302.855 352C302.692 341.44 302.366 330.88 301.714 320.32C301.388 315.04 300.736 309.76 299.921 304.64C299.432 302.08 299.106 299.36 297.802 296.8C297.476 296.16 296.987 295.52 296.498 295.04C296.009 294.56 295.52 294.08 294.868 293.6C293.564 292.8 292.423 292.16 291.282 291.68C281.828 286.72 272.048 282.24 262.268 277.76C257.378 275.52 252.488 273.44 247.435 271.52C242.382 269.44 237.492 267.52 232.276 265.92L231.461 265.6L231.298 266.56C230.809 269.92 229.668 273.28 227.875 276.32L227.223 277.44L226.571 278.56L225.104 280.8L223.474 282.88C222.822 283.52 222.333 284.32 221.681 284.8C219.236 287.36 216.465 289.44 213.531 291.36C212.064 292.32 210.597 293.28 208.967 294.08L204.077 296.32C197.394 298.88 190.548 300.96 183.376 302.08L177.997 302.88L172.618 303.36L167.239 303.84C165.446 304 163.653 303.84 161.86 304H156.481C154.688 304 152.895 303.84 151.102 303.84L145.723 303.52L140.344 302.88C136.758 302.56 133.335 301.6 129.749 300.96C127.956 300.64 126.326 300 124.533 299.36L121.925 298.56L119.48 297.44C112.797 294.72 106.603 290.88 101.876 285.6L100.083 283.68C99.5939 283.04 99.1049 282.24 98.4529 281.6C97.3119 280.16 96.6599 278.56 95.6819 277.12C94.0519 273.92 93.0739 270.56 92.7479 266.88C87.2059 268.8 81.9899 270.72 76.6109 272.64C71.2319 274.56 66.0159 276.64 60.6369 278.72C55.4209 280.8 50.0419 283.04 44.9889 285.28C39.7729 287.68 34.5569 289.92 29.8299 293.12C28.0369 295.2 27.0589 297.6 26.2439 299.84C25.4289 302.24 24.7769 304.64 24.4509 307.2C23.6359 312.16 23.4729 317.12 23.1469 322.08C22.4949 332 22.1689 341.92 22.0059 352V352.64H22.6579C45.9669 352.8 69.2759 352.48 92.5849 352.48L162.512 352.32H197.394L232.276 352.48L302.203 352.8H302.855V352ZM197.394 351.68H162.512L92.5849 351.52C81.5009 351.52 70.4169 351.52 59.1699 351.36C59.0069 345.92 58.3549 340.64 57.5399 335.36C56.5619 329.92 55.4209 324.48 53.4649 319.36C52.4869 316.8 51.0199 314.24 49.3899 312C47.7599 309.76 46.1299 307.52 44.1739 305.44C40.4249 301.28 36.1869 297.6 31.7859 294.4C35.8609 298.08 39.7729 302.08 43.3589 306.24C46.7819 310.4 50.0419 314.88 51.9979 320C53.9539 324.96 55.2579 330.4 56.3989 335.68C57.0509 338.4 57.5399 341.12 58.0289 343.68C58.5179 346.24 59.0069 348.8 59.3329 351.52C47.4339 351.52 35.5349 351.36 23.4729 351.52C23.6359 341.76 23.9619 332.16 24.4509 322.4C24.7769 317.44 24.9399 312.48 25.7549 307.52C26.0809 305.12 26.7329 302.72 27.5479 300.32C28.3629 298.08 29.3409 295.68 30.8079 293.92C35.3719 290.88 40.5879 288.48 45.6409 286.08C50.8569 283.68 56.0729 281.6 61.2889 279.36C66.5049 277.12 71.7209 275.04 77.0999 272.96L92.9109 266.88C93.0739 270.24 94.2149 273.92 95.6819 277.12C96.4969 278.72 97.3119 280.32 98.4529 281.76C98.9419 282.56 99.4309 283.2 100.083 284L101.876 286.08C106.766 291.52 112.96 295.52 119.643 298.24L122.088 299.36L124.696 300.16C126.489 300.64 128.119 301.44 129.912 301.76C133.498 302.56 136.921 303.52 140.67 303.84L146.049 304.64L151.428 304.96C153.221 305.12 155.014 305.28 156.807 305.28H165.446C165.12 306.4 165.12 307.36 165.283 308.32C165.446 309.44 165.609 310.4 166.098 311.52C164.305 311.52 162.675 311.68 160.882 311.52C153.058 311.52 145.234 311.2 137.573 310.08C136.595 309.92 135.617 309.92 134.639 309.76L131.705 309.12L126 308C124.044 307.52 122.251 306.88 120.458 306.4L117.85 305.6C118.665 304.8 119.317 303.68 119.806 302.72C120.295 301.6 120.784 300.32 120.947 299.04C119.969 300 119.317 301.12 118.665 302.24C118.176 303.36 117.687 304.32 117.524 305.6C116.546 305.28 115.731 304.96 114.916 304.64C112.471 303.68 110.189 302.72 107.907 301.6C108.396 301.12 108.885 300.8 109.211 300.32C109.7 299.84 110.026 299.36 110.515 298.88C111.33 297.76 111.982 296.64 112.471 295.36C111.33 296.16 110.352 297.12 109.537 298.08C109.211 298.56 108.722 299.2 108.396 299.84C108.07 300.32 107.907 300.96 107.744 301.6C104.158 299.84 100.898 297.6 97.9639 295.04C99.2679 294.4 100.246 293.6 101.224 292.64C102.202 291.68 103.18 290.56 103.832 289.28C102.528 289.92 101.387 290.88 100.409 291.84C99.4309 292.8 98.6159 293.76 97.9639 295.04C97.1489 294.24 96.1709 293.6 95.3559 292.8C94.5409 292.16 94.0519 291.36 93.3999 290.72C92.7479 290.08 92.0959 289.28 91.4439 288.48C90.3029 286.88 89.1619 285.44 88.1839 283.68C86.2279 280.32 84.7609 276.8 84.2719 272.96C84.5979 276.8 86.0649 280.48 87.8579 284C88.6729 285.76 89.8139 287.36 90.9549 288.96C91.4439 289.76 92.2589 290.4 92.7479 291.2C93.3999 291.84 94.0519 292.8 94.7039 293.44C100.246 299.04 107.092 303.2 114.427 306.08C115.405 306.4 116.22 306.88 117.198 307.2L119.969 308.16C121.925 308.8 123.718 309.44 125.674 309.92L131.542 311.2L134.476 311.84C135.454 312 136.432 312.16 137.41 312.16C145.234 313.28 153.058 313.6 161.045 313.76C176.693 313.76 192.667 311.68 207.337 305.76C214.672 302.72 221.518 298.88 227.386 293.6C230.32 290.88 232.928 288.16 235.047 284.8C237.329 281.6 239.122 278.24 240.1 274.4C237.492 281.76 232.439 287.84 226.734 292.96C220.866 298.08 214.02 301.76 206.685 304.64C195.927 308.8 184.517 310.88 172.944 311.68C173.107 310.72 173.107 309.92 172.944 309.12C172.781 308.16 172.455 307.2 171.966 306.24C171.64 307.36 171.64 308.32 171.803 309.28C171.966 310.08 172.129 311.04 172.618 311.84C170.499 312 168.217 312 166.098 312.16C166.424 311.04 166.424 309.92 166.424 308.8C166.261 307.84 166.098 306.88 165.609 305.76H167.565L172.944 305.44C174.737 305.28 176.53 305.28 178.323 304.96L183.702 304.16C190.874 303.2 198.046 301.12 204.729 298.56C211.412 295.84 217.769 291.84 222.985 286.72C223.637 286.08 224.289 285.44 224.778 284.64L226.571 282.56L228.038 280.32L228.853 279.2L229.505 277.92C231.135 275.04 232.276 272 232.928 268.64C237.655 270.08 242.382 272 246.946 273.92L261.616 280.16C271.396 284.48 281.013 288.96 290.467 293.92C291.608 294.56 292.912 295.2 293.89 295.84C294.379 296 294.868 296.64 295.357 296.96C295.846 297.44 296.009 297.92 296.335 298.4C297.313 300.64 297.802 303.2 298.291 305.76C299.106 310.88 299.758 316.16 300.247 321.44C301.062 331.68 301.388 342.08 301.551 352.32L264.876 352.48C265.365 349.76 265.691 347.2 266.18 344.64C266.669 341.92 267.158 339.2 267.81 336.64C268.951 331.36 270.255 325.92 272.211 320.96C274.004 316 277.427 311.52 280.85 307.2C284.436 303.04 288.348 299.04 292.423 295.36C287.859 298.56 283.784 302.4 280.035 306.4C278.079 308.48 276.449 310.56 274.819 312.96C273.189 315.2 271.885 317.76 270.907 320.32C268.951 325.44 267.647 330.88 266.832 336.32C266.017 341.76 265.365 347.04 265.202 352.48L232.765 352.64L197.394 351.68ZM223.8 285.76C224.289 286.88 224.941 287.68 225.756 288.48C226.571 289.28 227.386 289.92 228.527 290.4C228.038 289.28 227.386 288.48 226.571 287.68C225.756 286.88 224.941 286.08 223.8 285.76Z" fill="#184F58"/>
<path d="M111.705 128.576C111.705 128.576 93.53 112.896 90.6123 112.64C88.1021 112.416 81.8755 125.456 79.1208 133.696C78.3873 135.872 78.5666 138.304 79.5283 140.416C82.1689 146.128 88.0206 158.08 93.2692 164.064C93.2692 164.064 97.7028 165.008 99.1046 164.592C100.506 164.192 111.46 155.52 112.585 152.16C113.709 148.8 113.938 134.08 111.705 128.576Z" fill="#8C5537"/>
<path d="M113.27 134.704C113.563 136.8 113.726 138.928 113.808 141.04C113.889 143.152 113.906 145.28 113.792 147.408C113.74 148.472 113.647 149.534 113.515 150.592C113.433 151.136 113.352 151.664 113.189 152.224C113.026 152.784 112.732 153.344 112.439 153.76C111.265 155.536 109.831 156.88 108.413 158.24C106.978 159.584 105.511 160.848 103.995 162.08C103.229 162.688 102.479 163.28 101.681 163.856C101.29 164.144 100.882 164.416 100.475 164.688L99.8225 165.072C99.5617 165.2 99.252 165.344 98.9586 165.376C97.8665 165.504 96.9537 165.36 95.992 165.232C95.0466 165.104 94.1175 164.928 93.1721 164.72L92.9602 164.672L92.8298 164.512C90.4663 161.728 88.5429 158.624 86.7336 155.472C84.9406 152.304 83.3106 149.024 81.7458 145.712L79.4475 140.736C78.6325 139.056 78.2902 137.072 78.5673 135.2C78.6651 134.256 78.9911 133.376 79.2845 132.528C79.5779 131.664 79.8876 130.816 80.1973 129.968C80.8493 128.288 81.485 126.592 82.1859 124.928C83.5877 121.616 85.0547 118.32 86.9781 115.296C87.4671 114.544 87.9887 113.808 88.6081 113.12C88.9178 112.784 89.2601 112.448 89.7002 112.176C89.9121 112.048 90.1892 111.92 90.5478 111.92C90.8575 111.936 91.0694 112.032 91.3139 112.112C93.0417 112.864 94.362 113.936 95.7964 114.928C98.6 116.992 101.29 119.184 103.946 121.472C106.62 123.728 109.195 126.048 111.787 128.48C112.585 130.512 112.96 132.608 113.27 134.704ZM95.1933 116.016C93.8078 115.072 92.3408 114 90.9716 113.44C90.8249 113.408 90.6456 113.312 90.5478 113.312C90.4826 113.312 90.3522 113.344 90.2218 113.424C89.9447 113.584 89.6513 113.824 89.3905 114.128C88.8363 114.704 88.331 115.408 87.8583 116.112C85.9675 118.992 84.3049 122.144 82.789 125.344C82.0392 126.96 81.2894 128.576 80.6374 130.24C80.3114 131.072 79.9854 131.904 79.6757 132.752C79.366 133.6 79.0563 134.432 78.9422 135.312C78.6977 137.088 79.04 138.944 79.8387 140.528C80.6048 142.176 81.4361 143.808 82.2674 145.408C83.93 148.64 85.723 151.792 87.5812 154.864C89.4557 157.92 91.428 160.928 93.71 163.536L93.3677 163.328C95.1444 163.648 97.1167 164.016 98.7304 163.856C98.9097 163.84 99.0238 163.76 99.1868 163.68L99.7573 163.328L100.898 162.528C101.664 161.984 102.414 161.392 103.164 160.8C104.664 159.616 106.114 158.368 107.532 157.056C108.918 155.744 110.352 154.4 111.428 152.88C111.705 152.48 111.901 152.144 112.048 151.728C112.178 151.296 112.276 150.8 112.357 150.304C112.504 149.296 112.634 148.272 112.7 147.248C112.863 145.184 112.928 143.088 112.944 141.008C112.96 138.912 112.879 136.816 112.7 134.736C112.52 132.656 112.259 130.544 111.624 128.592C106.196 124.4 100.752 120.032 95.1933 116.016Z" fill="#7D4425"/>
<path d="M112.13 141.856C112.13 141.856 94.6071 120.128 91.3145 121.936C88.0382 123.728 82.8548 133.984 82.8711 137.408C82.9037 142.432 88.3153 150.816 91.0374 153.344C93.7595 155.872 97.0358 157.424 101.388 156.448C105.724 155.472 112.13 141.856 112.13 141.856Z" fill="#7D4425"/>
<path d="M98.7948 141.824C98.0613 139.808 97.2463 137.824 96.4313 135.84C95.6095 133.864 94.7069 131.921 93.7255 130.016C92.7312 128.128 91.7369 126.24 90.5144 124.496L90.384 124.304L90.2536 124.496C89.0311 126.384 87.8901 128.304 86.798 130.288C86.2601 131.28 85.7222 132.288 85.2332 133.312C84.7279 134.336 84.3041 135.408 83.864 136.48L83.7988 136.64L83.864 136.832C84.6138 139.088 85.4288 141.296 86.2601 143.52C86.6676 144.624 87.1403 145.712 87.613 146.8C88.102 147.888 88.5747 148.96 89.2267 150.016L89.5364 150.512L89.9439 150.144C90.4981 149.648 90.9219 149.104 91.362 148.512C91.7858 147.92 92.1607 147.296 92.4867 146.64C93.1387 145.328 93.5136 143.792 93.4647 142.256V142.16L93.4321 142.096C92.6171 140.512 91.7532 138.96 90.9056 137.392L90.8241 137.44C91.5087 139.056 92.177 140.688 92.8779 142.288C92.8127 143.664 92.3889 144.976 91.7695 146.144C91.2316 147.136 90.5144 148.016 89.7483 148.784C89.3245 148 88.9333 147.152 88.5584 146.288L87.2381 143.04C86.3742 140.928 85.5592 138.784 84.7605 136.656C85.494 134.576 86.2927 132.512 87.2381 130.544C88.1672 128.576 89.2267 126.688 90.4329 124.928C91.525 126.592 92.34 128.496 93.1713 130.352L95.6815 136.224L98.2243 142.096C99.0719 144.048 99.9358 146.016 100.832 147.952L100.93 147.904C100.262 145.872 99.5446 143.84 98.7948 141.824Z" fill="#5E2709"/>
<path d="M214.297 128.576C214.297 128.576 232.472 112.896 235.389 112.64C237.9 112.416 244.126 125.456 246.881 133.696C247.614 135.872 247.435 138.304 246.473 140.416C243.833 146.128 237.981 158.08 232.733 164.064C232.733 164.064 228.299 165.008 226.897 164.592C225.495 164.192 214.542 155.52 213.417 152.16C212.292 148.8 212.064 134.08 214.297 128.576Z" fill="#8C5537"/>
<path d="M214.249 128.528C216.824 126.096 219.416 123.776 222.089 121.52C224.73 119.248 227.436 117.04 230.239 114.976C231.674 113.968 232.994 112.912 234.722 112.16C234.982 112.096 235.178 111.984 235.488 111.968C235.83 111.968 236.107 112.096 236.335 112.224C236.792 112.496 237.134 112.816 237.427 113.168C238.047 113.856 238.568 114.592 239.057 115.344C240.981 118.368 242.432 121.68 243.85 124.976C244.551 126.64 245.186 128.32 245.838 130.016C246.148 130.864 246.458 131.712 246.751 132.576C247.044 133.424 247.354 134.304 247.468 135.248C247.745 137.12 247.403 139.104 246.588 140.784L244.29 145.76C242.709 149.056 241.095 152.336 239.302 155.52C237.493 158.688 235.569 161.792 233.206 164.56L233.075 164.72L232.863 164.768C231.918 164.976 230.989 165.136 230.044 165.28C229.082 165.392 228.153 165.536 227.077 165.424C226.784 165.392 226.474 165.248 226.213 165.12L225.561 164.736C225.154 164.464 224.746 164.192 224.355 163.904C223.572 163.328 222.806 162.736 222.04 162.128C220.524 160.912 219.057 159.632 217.623 158.288C216.205 156.912 214.77 155.584 213.597 153.808C213.267 153.338 213.014 152.819 212.847 152.272C212.684 151.712 212.619 151.168 212.521 150.64C212.391 149.568 212.293 148.512 212.244 147.456C212.13 145.328 212.13 143.216 212.228 141.088C212.325 138.976 212.472 136.848 212.766 134.752C213.043 132.608 213.418 130.512 214.249 128.528ZM214.347 128.624C213.695 130.56 213.434 132.688 213.271 134.768C213.108 136.848 213.026 138.944 213.026 141.04C213.043 143.136 213.124 145.216 213.271 147.28C213.352 148.32 213.466 149.344 213.613 150.336C213.711 150.832 213.792 151.328 213.923 151.76C214.07 152.176 214.249 152.512 214.542 152.912C215.618 154.416 217.052 155.776 218.438 157.088C219.84 158.384 221.307 159.632 222.806 160.832C223.556 161.424 224.306 162 225.072 162.56L226.213 163.36L226.784 163.712C226.947 163.792 227.061 163.872 227.24 163.888C228.854 164.048 230.826 163.68 232.603 163.36L232.26 163.568C234.542 160.96 236.515 157.952 238.389 154.896C240.247 151.824 242.04 148.672 243.703 145.44C244.534 143.824 245.366 142.208 246.132 140.56C246.93 138.976 247.273 137.12 247.028 135.344C246.914 134.448 246.604 133.632 246.295 132.784C245.985 131.936 245.675 131.104 245.333 130.272C244.681 128.608 243.931 126.976 243.181 125.376C241.665 122.16 240.003 119.024 238.112 116.144C237.639 115.44 237.134 114.736 236.58 114.16C236.303 113.872 236.009 113.616 235.749 113.456C235.651 113.393 235.539 113.354 235.423 113.344C235.325 113.344 235.145 113.44 234.999 113.472C233.63 114.032 232.163 115.104 230.777 116.048C225.251 120.032 219.807 124.4 214.347 128.624Z" fill="#7D4425"/>
<path d="M213.873 141.856C213.873 141.856 231.396 120.128 234.688 121.936C237.964 123.728 243.148 133.984 243.132 137.408C243.099 142.432 237.687 150.816 234.965 153.344C232.243 155.872 228.967 157.424 224.615 156.448C220.279 155.472 213.873 141.856 213.873 141.856Z" fill="#7D4425"/>
<path d="M242.123 136.496C241.699 135.424 241.275 134.352 240.753 133.328C240.264 132.304 239.743 131.296 239.189 130.304C238.097 128.32 236.939 126.4 235.733 124.512L235.603 124.32L235.472 124.512C234.266 126.272 233.255 128.144 232.261 130.032C231.283 131.92 230.403 133.872 229.555 135.856C228.757 137.84 227.925 139.824 227.192 141.84C226.442 143.856 225.725 145.888 225.105 147.936L225.203 147.984C226.1 146.048 226.947 144.08 227.811 142.128L230.354 136.256L232.864 130.384C233.696 128.528 234.511 126.624 235.603 124.96C236.809 126.72 237.868 128.624 238.797 130.576C239.743 132.56 240.558 134.608 241.275 136.688C240.46 138.832 239.661 140.96 238.797 143.072L237.477 146.32C237.102 147.168 236.711 148.032 236.287 148.816C235.521 148.048 234.804 147.168 234.266 146.176C233.63 145.008 233.223 143.696 233.158 142.32C233.859 140.72 234.527 139.088 235.211 137.472L235.13 137.424C234.282 138.992 233.418 140.544 232.603 142.128L232.571 142.192V142.288C232.522 143.824 232.897 145.36 233.549 146.672C233.875 147.328 234.25 147.968 234.674 148.544C235.097 149.12 235.537 149.68 236.092 150.176L236.499 150.544L236.809 150.048C237.461 148.976 237.934 147.904 238.423 146.832C238.895 145.744 239.352 144.656 239.775 143.552C240.607 141.344 241.422 139.12 242.172 136.864L242.237 136.672L242.123 136.496Z" fill="#5E2709"/>
<path d="M228.854 87.84C225.268 71.84 218.585 62.24 204.078 54.56C188.919 46.56 163.002 46.88 163.002 46.88C163.002 46.88 137.085 46.56 121.926 54.56C107.582 62.24 100.736 71.84 97.15 87.84C95.683 94.24 97.15 109.6 97.15 109.6C97.15 109.6 101.062 145.28 101.062 155.68C101.062 166.08 99.758 196.96 102.04 200.32C104.322 203.68 140.671 237.76 145.561 240.48C150.451 243.04 175.553 243.04 180.443 240.48C185.333 237.92 221.682 203.68 223.964 200.32C226.246 196.96 224.942 166.08 224.942 155.68C224.942 145.28 228.691 109.44 228.691 109.44C228.691 109.44 230.321 94.24 228.854 87.84Z" fill="#8C5537"/>
<path d="M228.854 87.84C225.268 71.84 218.585 62.24 204.078 54.56C188.919 46.56 163.002 46.88 163.002 46.88C163.002 46.88 137.085 46.56 121.926 54.56C107.582 62.24 100.736 71.84 97.15 87.84C95.683 94.24 97.15 109.6 97.15 109.6C97.15 109.6 101.062 145.28 101.062 155.68C101.062 166.08 99.758 196.96 102.04 200.32C104.322 203.68 140.671 237.76 145.561 240.48C150.451 243.04 175.553 243.04 180.443 240.48C185.333 237.92 221.682 203.68 223.964 200.32C226.246 196.96 224.942 166.08 224.942 155.68C224.942 145.28 228.691 109.44 228.691 109.44C228.691 109.44 230.321 94.24 228.854 87.84ZM228.854 104C228.691 105.76 228.528 107.68 228.365 109.44C227.061 120.32 225.757 131.2 224.616 142.08C224.29 144.8 224.127 147.52 223.801 150.24C223.638 152.96 223.475 155.84 223.475 158.56V183.04C223.475 185.76 223.312 188.48 223.312 191.2C223.312 192.48 223.149 193.92 222.986 195.2C222.986 195.84 222.823 196.48 222.823 197.12C222.823 197.76 222.66 198.4 222.497 198.88L222.334 199.2L221.845 199.84L220.541 201.28L217.607 204.16C213.695 208 209.62 211.84 205.708 215.52C201.633 219.2 197.721 223.04 193.646 226.72C191.69 228.64 189.571 230.4 187.452 232.16C185.333 233.92 180.264 238.112 179.71 238.512C179.367 238.752 178.976 238.928 178.569 239.024C177.574 239.264 175.537 239.728 174.575 239.84C171.967 240.16 169.196 240.32 166.425 240.48C163.654 240.64 160.883 240.64 158.275 240.48C155.504 240.32 148.984 239.68 148.332 239.52C147.68 239.36 146.18 239.008 145.398 238.24L143.768 236.96C141.649 235.2 139.53 233.44 137.574 231.68C133.499 228.16 129.261 224.48 125.186 220.64C121.111 216.96 117.036 213.28 112.961 209.44C111.005 207.52 108.886 205.76 106.93 203.84L105.463 202.4L103.996 200.96C103.67 200.64 102.611 200.08 102.285 198.064C102.122 196.784 102.04 195.52 101.877 194.08C101.714 192.8 101.714 191.36 101.714 190.08C101.551 187.36 101.551 184.64 101.551 181.92V157.44C101.551 154.72 101.388 152 101.225 149.28C100.41 138.4 99.4321 127.52 98.4541 116.64L98.291 112C98.128 110.56 97.965 109.28 97.965 108C97.802 105.28 97.6391 102.56 97.6391 99.84C97.6391 97.12 97.639 94.4 97.802 91.84C97.965 90.56 98.1281 89.28 98.4541 88C98.7801 86.72 102.203 77.12 102.529 76.64C103.67 74.24 104.974 72 106.604 69.76C108.234 67.68 110.027 65.76 111.983 63.84C113.939 62.08 116.058 60.48 118.34 59.04C120.622 57.6 123.067 56.32 125.349 55.2C126.001 54.88 128.935 53.76 128.935 53.76C128.935 53.76 132.195 52.64 132.847 52.48C138.063 51.04 143.442 50.08 148.984 49.44C154.363 48.8 159.905 48.48 165.447 48.48C168.218 48.48 170.989 48.64 173.76 48.8C175.064 48.8 176.531 48.96 177.835 49.12C179.139 49.28 180.606 49.44 181.91 49.6C187.289 50.24 192.831 51.2 198.047 52.96C200.655 53.92 203.1 54.88 205.545 56.16C206.197 56.48 206.686 56.8 207.338 57.12L209.131 58.24C210.272 59.04 211.413 59.68 212.554 60.48C216.955 63.68 220.704 67.84 223.312 72.64C224.616 75.04 225.757 77.6 226.572 80.16C227.55 82.72 228.039 85.424 228.691 87.984C229.017 89.744 229.196 91.984 229.196 93.904C229.196 95.68 229.017 102.24 228.854 104Z" fill="#5E2709"/>
<path d="M137.736 197.92C137.736 197.92 164.468 211.52 186.473 198.24C186.473 198.24 174.737 192.8 170.825 190.88C170.499 190.72 163.001 196.16 163.001 196.16L154.362 190.4C154.199 190.4 143.604 196.64 137.736 197.92Z" fill="#8C5537"/>
<path d="M146.213 211.2C146.213 211.2 151.266 217.92 153.222 217.92C155.178 217.92 160.72 215.04 162.187 214.88C163.654 214.72 172.293 217.76 173.76 217.44C175.227 217.28 179.791 211.04 179.791 211.04C179.791 211.04 174.738 215.04 172.945 215.04C171.152 215.04 162.513 212.48 161.046 212.96C159.579 213.44 154.363 216.32 153.385 216.16C152.244 215.84 146.213 211.2 146.213 211.2Z" fill="#6D3415"/>
<path d="M134.998 196.656C134.998 196.656 142.789 203.024 160.703 204.48C178.601 205.936 189.098 196.464 189.098 196.464C189.098 196.464 176.009 204.848 160.899 203.472C145.756 202.112 134.998 196.656 134.998 196.656Z" fill="#7D4425"/>
<path d="M130.728 118.72C142.953 118.72 152.733 128 152.733 139.52C152.733 151.04 142.953 160.32 130.728 160.32C118.503 160.32 108.723 151.04 108.723 139.52C108.723 128 118.503 118.72 130.728 118.72Z" fill="white"/>
<path d="M130.728 130.56C135.781 130.56 139.856 134.56 139.856 139.52C139.856 144.48 135.781 148.48 130.728 148.48C125.675 148.48 121.6 144.48 121.6 139.52C121.6 134.56 125.675 130.56 130.728 130.56Z" fill="#4E60A3"/>
<path d="M130.728 134.72C133.499 134.72 135.618 136.8 135.618 139.52C135.618 142.24 133.499 144.32 130.728 144.32C127.957 144.32 125.838 142.24 125.838 139.52C125.838 136.8 127.957 134.72 130.728 134.72Z" fill="black"/>
<path d="M129.587 135.68L128.609 134.72C128.283 134.4 127.794 134.24 127.305 134.24C126.816 134.24 126.327 134.4 126.001 134.72C125.675 135.04 125.512 135.52 125.512 136C125.512 136.48 125.675 136.96 126.001 137.28L126.979 138.24C127.305 138.56 127.794 138.72 128.12 138.72C128.609 138.72 129.098 138.56 129.261 138.24C130.239 137.28 130.239 136.32 129.587 135.68ZM133.988 143.84C135.618 143.84 135.618 141.44 133.988 141.44C132.521 141.44 132.521 143.84 133.988 143.84Z" fill="white"/>
<path d="M130.727 117.92C118.013 117.92 107.744 127.68 107.744 139.68C107.744 151.68 118.013 161.44 130.727 161.44C143.441 161.44 153.71 151.68 153.71 139.68C153.71 127.68 143.441 117.92 130.727 117.92ZM122.74 150.24C114.916 147.52 112.308 139.52 111.004 134.08C109.537 128.48 133.498 128.48 139.529 133.44C145.723 138.24 148.168 145.12 148.494 148.8C148.657 148.64 130.564 152.96 122.74 150.24Z" fill="#8C5537"/>
<path d="M148.494 148C148.331 147.2 148.331 146.4 148.005 145.76L147.516 144.32C146.701 141.28 145.071 137.12 142.626 134.4C140.67 132.32 135.943 127.36 127.956 127.36C119.969 127.36 114.59 129.92 113.612 130.4C113.286 130.56 112.797 130.88 112.471 131.2C111.819 131.52 111.167 132 110.678 132.8C110.515 133.12 110.515 133.28 110.515 133.6C110.352 133.76 110.352 133.92 110.352 133.92H110.515C110.515 134.08 110.515 134.4 110.678 134.56C110.841 135.04 111.004 135.52 111.004 136L111.982 138.88C112.634 140.8 113.449 142.56 114.59 144.32C115.731 146.08 117.035 147.52 118.665 148.8C120.295 150.08 122.251 150.88 124.207 151.36C128.282 152.16 132.357 151.84 136.432 151.36C140.507 150.88 144.419 150.08 148.331 148.96C148.657 148.64 148.657 148.32 148.494 148ZM148.494 148.64C144.582 149.28 140.507 149.92 136.595 150.4C134.639 150.56 132.52 150.72 130.564 150.72C128.608 150.72 126.489 150.72 124.533 150.4C120.621 149.76 117.035 147.36 115.079 144C113.938 142.4 113.123 140.48 112.471 138.72C112.145 137.76 111.819 136.8 111.656 135.84C111.493 135.36 111.33 134.88 111.33 134.4C111.33 134.08 111.167 133.92 111.167 133.76C113.449 133.12 121.925 130.72 128.282 130.72C135.617 130.88 141.159 136.48 143.441 138.88C145.397 140.64 148.331 147.04 148.494 148.64Z" fill="black"/>
<path d="M195.276 118.72C207.501 118.72 217.281 128 217.281 139.52C217.281 151.04 207.501 160.32 195.276 160.32C183.051 160.32 173.271 151.04 173.271 139.52C173.271 128 183.051 118.72 195.276 118.72Z" fill="white"/>
<path d="M195.276 131.68C199.677 131.68 203.263 135.2 203.263 139.52C203.263 143.84 199.677 147.36 195.276 147.36C190.875 147.36 187.289 143.84 187.289 139.52C187.289 135.2 190.875 131.68 195.276 131.68Z" fill="#4E60A3"/>
<path d="M195.275 135.36C197.557 135.36 199.513 137.28 199.513 139.52C199.513 141.76 197.557 143.68 195.275 143.68C192.993 143.68 191.037 141.76 191.037 139.52C191.037 137.28 192.993 135.36 195.275 135.36Z" fill="black"/>
<path d="M194.299 136.16C193.973 135.84 193.81 135.52 193.484 135.36C193.158 135.04 192.832 134.88 192.343 134.88C192.017 134.88 191.528 135.04 191.202 135.36C190.876 135.68 190.713 136 190.713 136.48C190.713 136.8 190.876 137.28 191.202 137.6C191.528 137.92 191.854 138.08 192.017 138.4C192.343 138.72 192.669 138.88 193.158 138.88C193.484 138.88 193.973 138.72 194.299 138.4C194.788 137.6 194.788 136.64 194.299 136.16ZM198.211 143.36C199.515 143.36 199.678 141.28 198.211 141.28C196.907 141.12 196.907 143.36 198.211 143.36Z" fill="white"/>
<path d="M195.276 117.92C182.562 117.92 172.293 127.68 172.293 139.68C172.293 151.68 182.562 161.44 195.276 161.44C207.99 161.44 218.259 151.68 218.259 139.68C218.259 127.68 207.99 117.92 195.276 117.92ZM203.915 149.12C196.743 152 179.465 149.28 179.465 149.28C179.628 146.24 181.584 140 187.126 135.36C192.668 130.72 215.162 129.28 214.184 134.24C213.043 139.2 211.087 146.4 203.915 149.12Z" fill="#8C5537"/>
<path d="M214.511 134.56C214.511 134.56 214.511 132.48 213.044 131.84C212.066 131.52 205.872 130.24 198.211 130.72C193.973 131.04 190.713 132.48 188.268 134.08C187.779 134.4 187.29 134.56 186.964 134.88C185.497 136.16 184.193 137.44 183.052 139.04C180.933 142.08 179.303 145.6 179.303 149.28C179.303 149.76 179.466 150.56 179.466 150.56C179.466 150.56 179.629 150.08 179.792 149.44C183.378 150.08 186.801 150.56 190.55 150.72C192.506 150.88 194.299 150.88 196.092 150.88C198.048 150.88 199.841 150.56 201.634 150.24C203.427 149.92 205.22 148.96 206.85 148C208.317 146.88 209.621 145.44 210.762 144C211.74 142.4 212.555 140.8 213.207 139.04C213.533 138.24 213.696 137.28 214.022 136.32L214.348 135.04C214.348 134.88 214.348 134.88 214.511 134.72V134.56ZM213.859 134.72L213.533 136C213.37 136.96 213.044 137.76 212.881 138.72C212.229 140.48 211.577 142.08 210.599 143.68C208.643 146.72 205.22 148.8 201.634 149.44C200.656 149.6 199.841 149.76 198.863 149.92C197.885 149.92 197.07 150.08 196.092 150.08C194.299 150.24 192.343 150.24 190.55 150.08C186.964 149.92 183.378 149.76 179.792 149.44C180.444 147.04 182.237 142.08 183.704 140.32C185.66 137.92 190.55 133.12 197.559 132.48C203.427 132 211.577 133.76 213.859 134.4V134.72Z" fill="black"/>
<path d="M151.266 111.2C151.266 111.2 150.94 117.44 149.636 122.56C149.636 122.56 123.393 115.2 120.296 114.88C117.199 114.56 106.604 121.44 106.604 121.44L117.199 105.76L123.393 106.24L122.415 104.8L135.455 107.84L147.68 109.76L148.495 114.24L149.147 109.76L149.962 114.24L151.266 111.2Z" fill="#2A232B"/>
<path d="M151.102 111.36C150.939 111.84 150.776 112.16 150.45 112.64C150.287 112.96 150.124 113.28 149.961 113.76L149.309 109.76L148.983 108.32L148.657 109.76L148.168 112.32L147.679 109.76L147.679 109.44L147.353 109.44L140.996 108.32L137.899 107.84C136.921 107.68 135.78 107.52 134.802 107.36C130.564 106.4 126.489 105.44 122.251 104.48L120.947 104.16L121.762 105.44L122.251 105.6L117.198 105.28L116.872 105.28L116.709 105.44C114.916 108.16 113.286 110.72 111.493 113.44L106.277 121.44L105.625 122.4L106.603 121.76C109.7 119.68 112.96 117.76 116.383 116.32C117.198 116 118.176 115.68 118.991 115.36C119.48 115.2 119.806 115.2 120.295 115.2L120.947 115.36L121.599 115.52C123.392 116 125.348 116.48 127.141 116.96C130.89 118.08 134.476 119.04 138.225 120C141.974 120.96 145.56 121.92 149.309 122.88L149.635 123.04L149.635 122.72C150.124 120.8 150.287 118.88 150.613 116.96C150.776 116 150.776 115.04 150.939 114.08C150.939 113.6 150.939 113.12 151.102 112.64L151.102 111.36ZM151.102 111.84L150.939 112.48L150.776 113.92L150.287 116.8C149.961 118.56 149.635 120.32 149.146 122.08C145.56 120.96 141.974 120 138.388 118.88C134.639 117.76 131.053 116.8 127.304 116C125.511 115.52 123.555 115.2 121.762 114.72L121.11 114.56L120.458 114.4C119.969 114.4 119.48 114.4 118.991 114.56C118.013 114.88 117.198 115.2 116.383 115.52C113.286 116.96 110.352 118.56 107.418 120.48L112.145 113.76C113.938 111.2 115.731 108.64 117.361 106.24L123.229 106.72L124.37 106.88L123.718 105.76L123.555 105.6C127.304 106.56 131.053 107.36 134.802 108.16L141.159 109.12L147.19 109.92L148.005 113.92L148.331 115.84L148.657 113.92L149.146 110.72L149.798 113.76L149.961 114.24L150.124 113.76L150.613 112.32C150.776 111.84 150.939 111.36 151.102 111.04L151.102 111.84ZM146.375 119.36C146.375 118.08 146.212 116.64 146.049 115.36C145.886 114.72 145.886 114.08 145.723 113.44C145.56 112.8 145.397 112.16 145.071 111.52C145.234 112.16 145.234 112.8 145.234 113.44C145.234 114.08 145.397 114.72 145.56 115.36C145.723 116.64 146.049 118.08 146.375 119.36ZM144.419 116.64C144.093 116.16 143.93 115.52 143.604 115.04L142.789 113.44L141.159 110.4L140.833 109.6L140.833 110.56C140.833 113.12 140.833 115.68 140.996 118.24L141.485 118.08C140.996 117.44 140.507 116.64 140.018 116L138.551 114.08C138.062 113.44 137.573 112.8 136.921 112.16C136.432 111.52 135.78 110.88 135.128 110.4C135.617 111.04 136.269 111.68 136.758 112.32L138.225 114.24C138.714 114.88 139.203 115.52 139.692 116.32C140.181 116.96 140.67 117.76 140.996 118.4L141.485 119.2L141.485 118.24C141.485 115.68 141.322 113.12 141.322 110.56L140.996 110.72L142.789 113.76L143.767 115.2C143.767 115.68 144.093 116.16 144.419 116.64Z" fill="#1B141C"/>
<path d="M174.738 117.12C174.738 117.12 176.205 122.08 178.487 125.92C178.487 125.92 202.774 116.16 205.871 115.52C208.968 114.88 220.541 118.72 220.541 118.72L207.175 107.68L201.307 108.96L201.959 107.68L189.734 112L178.161 115.2L178.161 118.88L176.694 115.36L176.694 119.04L174.738 117.12Z" fill="#2A232B"/>
<path d="M220.703 118.56L214.183 112.96C212.064 111.04 209.782 109.28 207.5 107.36L207.337 107.2L207.174 107.2L202.284 108.16L202.447 107.84L203.099 106.72L201.795 107.2C197.883 108.48 193.971 109.92 190.059 111.36L187.125 112.32L184.191 113.28L178.16 115.04L177.834 115.04L177.834 117.44L176.856 115.36L176.367 114.24L176.367 115.36L176.53 118.56C176.367 118.24 176.041 118.08 175.878 117.76C175.552 117.44 175.389 117.12 175.063 116.8L174.9 116.64L174.9 117.12L175.063 117.44L175.226 118.08C175.389 118.4 175.552 118.88 175.552 119.2C175.878 120 176.041 120.64 176.367 121.44C176.856 122.88 177.671 124.48 178.323 125.92L178.486 126.24L178.812 126.08C182.235 124.8 185.658 123.52 189.244 122.08C192.667 120.8 196.09 119.36 199.513 118.08C201.306 117.44 202.936 116.8 204.729 116.16L205.381 116L206.033 115.84C206.522 115.68 206.848 115.68 207.337 115.68C208.315 115.68 209.13 115.84 210.108 116C213.694 116.64 217.28 117.76 220.866 118.88L221.844 119.2L220.703 118.56ZM207.174 115.2C206.685 115.2 206.196 115.2 205.707 115.36L205.055 115.52L204.403 115.68C202.61 116.16 200.817 116.8 199.187 117.44C195.601 118.72 192.178 120 188.755 121.28C185.332 122.56 182.072 124 178.812 125.44C177.997 124.16 177.345 122.72 176.856 121.44C176.53 120.8 176.204 120 175.878 119.2L175.389 118.08L175.226 117.6L175.063 117.28L175.063 117.12C175.389 117.44 175.552 117.76 175.715 118.08C176.041 118.4 176.204 118.72 176.53 119.2L176.856 119.52L176.856 116.48L177.834 118.88L178.486 120.32L178.486 115.36L184.354 113.76C186.31 113.28 188.429 112.64 190.385 112.16C193.971 110.88 197.394 109.76 200.98 108.48L200.98 108.64L200.491 109.6L201.632 109.28L207.337 108C209.456 109.76 211.738 111.52 213.857 113.28L219.725 117.92C216.465 116.96 213.368 116 209.945 115.36C208.967 115.52 208.152 115.36 207.174 115.2ZM181.094 122.72C180.768 121.6 180.768 120.64 180.768 119.52L180.768 117.92C180.768 117.44 180.768 116.8 181.094 116.32C181.094 116.8 181.257 117.44 181.257 117.92C181.257 118.4 181.42 119.04 181.42 119.52C181.257 120.64 181.257 121.76 181.094 122.72ZM182.561 120.32C182.724 119.84 182.887 119.36 183.05 119.04L183.539 117.76L184.517 115.04L184.843 114.4L185.006 115.04C185.495 117.12 185.821 119.2 186.31 121.12L185.821 121.12L186.799 119.2C187.125 118.56 187.451 117.92 187.94 117.44C188.266 116.8 188.755 116.32 189.081 115.68C189.407 115.04 189.896 114.56 190.385 114.08C189.896 114.56 189.57 115.2 189.244 115.84C188.918 116.48 188.592 116.96 188.103 117.6L187.125 119.52L186.147 121.44L185.821 122.08L185.658 121.44C185.169 119.36 184.843 117.28 184.354 115.36L184.843 115.36L183.702 117.92L183.05 119.2C183.05 119.52 182.887 119.84 182.561 120.32Z" fill="#1B141C"/>
<path d="M161.533 186.4C162.625 186.592 168.917 181.104 168.917 181.104C168.917 181.104 172.275 183.648 174.818 183.392C177.361 183.136 178.795 181.664 179.708 180.256C180.621 178.848 178.257 175.296 176.806 173.2C175.339 171.104 171.036 164.848 170.14 161.968C168.396 156.448 165.25 154.352 162.12 154.544C158.99 154.736 155.535 156.976 154.622 160.048C153.709 163.12 153.448 166.896 151.688 169.264C149.928 171.632 146.276 175.664 145.885 176.816C145.494 177.968 145.706 181.296 147.906 182.512C150.726 184.064 154.915 181.696 154.915 181.696C154.915 181.696 160.099 186.144 161.533 186.4Z" fill="#8C5537"/>
<path d="M179.757 177.392C179.073 175.776 177.997 174.416 176.807 173.216C177.736 174.624 178.568 176.096 179.073 177.632C179.317 178.4 179.464 179.184 179.334 179.904C179.252 180.272 179.138 180.56 178.91 180.864C178.698 181.184 178.437 181.488 178.144 181.728C177.019 182.784 175.373 183.184 173.775 182.976C172.977 182.88 172.162 182.656 171.396 182.352C170.662 182.096 169.994 181.728 169.293 181.36C169.912 180.464 170.466 179.52 170.955 178.544C169.374 180 167.875 181.472 166.277 182.768C165.479 183.408 164.68 184.048 163.816 184.512C162.985 184.992 162.072 185.392 161.355 185.344C161.159 185.36 161.012 185.312 160.849 185.28C160.703 185.2 160.572 185.184 160.36 185.024C159.969 184.784 159.562 184.448 159.154 184.144C158.339 183.52 157.541 182.832 156.726 182.176C155.112 180.832 153.482 179.472 151.721 178.208C152.555 179.459 153.47 180.656 154.46 181.792C153.645 182.144 152.814 182.448 151.966 182.624C150.923 182.816 149.847 182.864 148.967 182.464C147.19 181.616 146.163 179.536 146.457 177.76C146.538 177.312 146.668 176.96 146.946 176.576C147.223 176.16 147.532 175.728 147.858 175.312C148.51 174.48 149.195 173.68 149.912 172.88L150.988 171.696C151.412 171.248 151.738 170.8 152.08 170.352C152.748 169.44 153.335 168.464 153.824 167.424C154.313 166.384 154.607 165.184 154.786 164.128C154.981 163.04 155.144 161.968 155.275 160.896C155.519 158.736 155.715 156.592 155.78 154.432C155.943 150.112 155.829 145.76 154.949 141.52C155.03 145.824 154.721 150.08 154.297 154.32C154.052 156.432 153.824 158.56 153.482 160.656C153.319 161.712 153.156 162.752 152.96 163.792C152.765 164.848 152.52 165.744 152.08 166.656C151.662 167.585 151.149 168.469 150.548 169.296C150.254 169.712 149.945 170.144 149.619 170.48C149.244 170.896 148.885 171.296 148.543 171.728C147.842 172.576 147.157 173.44 146.522 174.336C146.196 174.784 145.886 175.248 145.593 175.744C145.267 176.272 145.038 176.96 144.99 177.568C144.778 180.08 146.375 182.448 148.657 183.248C149.847 183.616 151.053 183.424 152.113 183.072C152.993 182.768 153.792 182.336 154.541 181.84C154.933 182.288 155.307 182.752 155.699 183.184C156.416 183.984 157.182 184.72 157.997 185.456C158.404 185.824 158.828 186.16 159.334 186.496C159.545 186.656 159.92 186.848 160.263 186.976C160.621 187.072 160.98 187.168 161.338 187.152C162.773 187.152 163.865 186.544 164.827 185.936C165.772 185.28 166.62 184.56 167.353 183.744C168.07 182.976 168.722 182.16 169.325 181.296C170.548 182.352 171.999 183.296 173.694 183.616C174.574 183.808 175.503 183.808 176.4 183.616C177.296 183.392 178.144 182.96 178.828 182.336C179.171 182.032 179.464 181.664 179.709 181.296C179.986 180.928 180.181 180.432 180.23 179.952C180.328 179.072 180.1 178.192 179.757 177.392Z" fill="#5E2709"/>
<path d="M101.551 135.52C101.551 135.52 103.996 131.2 104.322 123.84C104.648 116.48 104.322 106.4 104.648 101.12C104.974 95.84 106.278 88 107.093 85.12C107.745 82.24 108.071 79.52 110.027 76.64C111.983 73.76 113.939 70.88 118.503 69.76C123.067 68.64 130.891 64.96 132.684 62.88C132.684 62.88 137.574 61.92 138.715 61.28C138.715 61.28 147.354 65.44 150.451 65.76C153.548 66.08 163.817 66.56 170.5 64.64C177.183 62.72 186.963 60.48 190.712 61.12C194.461 61.76 210.598 59.36 217.77 81.44C217.77 81.44 219.563 88.32 219.726 98.08C219.889 107.84 220.215 114.24 221.03 117.12C221.682 120 222.986 126.08 222.986 128.8C222.986 131.52 223.964 132.8 223.964 132.8C223.964 132.8 226.735 126.72 227.55 123.52C228.365 120.32 230.647 104.96 230.973 102.56C231.299 100.16 231.951 92.32 232.44 88.96C232.929 85.76 232.44 73.76 232.44 73.76C232.44 73.76 232.603 66.24 231.462 64C230.321 61.92 229.18 58.4 226.735 56.32C226.735 56.32 226.898 53.76 226.572 52C226.246 50.24 223.149 43.52 213.206 35.04C203.263 26.56 191.527 20 177.998 20C177.998 20 182.725 19.36 185.822 19.04C185.822 19.04 176.857 17.92 172.619 18.56L179.628 17.6C179.628 17.6 167.892 15.36 159.579 17.76C159.579 17.76 160.72 15.84 166.425 13.76C166.425 13.76 153.711 10.4 141.323 18.72C141.323 18.72 131.706 18.24 122.252 29.6C122.252 29.6 116.221 31.36 114.591 32.48C112.961 33.6 104.485 37.44 103.344 50.72C103.344 50.72 95.1938 51.68 94.3788 68.32L95.1938 82.24C95.1938 82.24 92.2598 88 92.2598 93.92C92.2598 99.84 93.8898 103.52 94.0528 106.4C94.2158 109.28 95.1938 114.72 95.1938 114.72C95.1938 114.72 98.1278 121.44 98.6168 124.16C98.9428 127.2 101.551 135.52 101.551 135.52Z" fill="#2A232B"/>
<path d="M233.091 74.4C233.254 72.8 233.254 71.2 233.091 69.6C232.928 68 232.602 66.4 232.113 64.8C231.624 63.2 230.972 61.76 230.32 60.32C229.668 59.04 228.69 57.76 227.712 56.48C228.038 53.6 227.06 50.88 225.756 48.48C224.452 46.08 222.659 43.84 220.703 41.76C216.954 37.6 212.553 34.08 208.152 30.72C203.588 27.52 198.698 24.64 193.319 22.88C190.711 21.92 187.94 21.28 185.169 20.96C182.398 20.64 179.627 20.48 176.856 20.8C182.398 20.32 187.94 21.6 193.156 23.52C198.372 25.44 203.099 28.32 207.5 31.68C209.782 33.28 211.738 35.04 213.857 36.96C215.976 38.72 217.932 40.64 219.725 42.72C221.518 44.8 223.148 46.88 224.452 49.28C225.756 51.52 226.571 54.24 226.245 56.64V56.96L226.571 57.28C227.549 58.4 228.364 59.68 229.179 60.96C229.831 62.24 230.483 63.68 230.972 65.12C231.461 66.56 231.787 68 231.787 69.6C231.95 71.2 231.95 72.64 231.787 74.24C232.113 79.2 232.113 84.16 231.95 89.12C231.787 94.08 230.809 98.88 230.157 103.84C229.505 108.8 228.853 113.76 228.038 118.56C227.712 120.96 227.223 123.52 226.571 125.76C225.756 128 224.778 130.4 224.126 132.8C224.941 130.4 225.919 128.16 226.897 125.92C227.712 123.52 228.201 121.12 228.69 118.56C229.668 113.6 230.483 108.8 231.135 103.84L232.276 96.48C232.765 94.08 232.928 91.52 233.091 88.96C233.417 84.32 233.417 79.36 233.091 74.4ZM220.866 76.48C221.029 75.2 221.518 73.92 221.844 72.64C222.17 71.36 222.659 70.08 223.148 68.8L224.452 64.96L225.104 63.04L225.43 62.08L225.593 61.6L225.756 61.28V61.12C225.593 61.12 225.756 61.12 225.593 61.28L225.43 61.44L225.104 61.92L224.615 62.72L223.637 64.48C222.985 65.76 222.333 66.88 221.844 68.16C220.703 70.72 219.725 73.28 219.236 76C218.91 77.92 218.91 79.84 218.91 81.76C218.747 80.96 218.421 80.16 218.258 79.36C217.443 76.48 216.302 73.6 214.998 70.88C213.694 68.16 212.227 65.44 210.108 63.04C206.196 58.24 200.491 55.2 194.786 52.96C189.081 51.04 184.517 46.88 181.42 41.92C179.953 39.52 178.649 36.64 178.486 33.76C178.323 32.32 178.649 30.88 179.138 29.6C179.79 28.32 180.605 27.2 181.909 26.4C184.191 24.64 187.288 23.84 190.222 24C193.156 24.16 196.253 25.12 198.861 26.56C196.253 24.96 193.319 24 190.222 23.68C187.125 23.36 183.865 24 181.42 25.92C180.116 26.72 178.975 28 178.323 29.44C177.671 30.88 177.345 32.48 177.508 34.08C177.671 37.28 178.812 40.16 180.442 42.72C183.539 48 188.592 52.32 194.297 54.4C199.839 56.64 205.218 59.68 208.804 64.16C211.738 67.68 213.694 71.84 215.324 76.16C213.205 71.04 209.456 66.24 204.403 63.36C201.469 61.6 198.046 60.64 194.623 60.48H193.971C188.755 58.88 183.213 57.92 177.671 57.76H173.596L172.292 57.6C171.477 57.6 170.499 57.28 169.684 57.12C168.869 56.8 168.054 56.64 167.239 56.16C163.979 54.72 161.208 52.48 159.415 49.6C157.459 46.72 156.155 43.36 155.666 40C155.177 36.48 155.34 32.96 156.481 29.76C157.622 26.56 160.23 23.84 163.164 21.92C166.261 20.16 169.847 19.04 173.433 18.56C169.847 18.72 166.098 19.52 162.838 21.28C159.578 23.04 156.807 25.76 155.34 29.28C155.014 30.08 154.688 31.04 154.525 32C154.362 32.96 154.199 33.76 154.199 34.72C154.199 35.68 154.036 36.48 154.036 37.44C154.036 38.4 154.199 39.2 154.199 40.16C154.688 43.84 155.992 47.36 157.948 50.56C160.067 53.6 163.164 56.16 166.587 57.6C170.01 59.2 174.085 59.36 177.671 59.04C181.257 58.88 184.843 59.2 188.429 59.84C189.407 60 190.548 60.16 191.526 60.32C189.081 60.32 186.636 60.32 184.354 60.64C177.508 61.44 170.988 63.84 164.468 64.8C161.208 65.28 157.785 65.44 154.525 65.12C151.102 64.96 147.842 64.16 144.908 62.88C141.974 61.6 139.203 59.68 137.084 57.12C134.965 54.72 133.498 51.68 132.52 48.64C131.542 45.6 131.216 42.24 131.379 39.04C131.542 35.84 131.868 32.48 133.172 29.44C135.78 23.52 141.159 18.88 147.19 16.32C152.732 13.92 159.089 13.12 164.957 14.08C164.142 14.4 163.327 14.56 162.512 15.04C161.86 15.36 161.208 15.68 160.556 16.16C159.904 16.64 159.415 17.12 159.089 17.92L158.926 18.56L159.578 18.4C161.208 17.76 163.001 17.44 164.631 17.28C166.424 17.12 168.054 16.96 169.847 16.96C171.64 16.96 173.433 17.12 175.063 17.12C176.856 17.28 178.649 17.44 180.279 17.76C178.486 17.44 176.856 17.12 175.063 16.96C173.27 16.8 171.477 16.64 169.847 16.64C168.054 16.64 166.261 16.64 164.468 16.8C163.001 16.96 161.534 17.12 160.067 17.6C160.393 17.28 160.556 16.96 160.882 16.8C161.371 16.48 162.023 16.16 162.675 15.84C163.979 15.36 165.283 14.88 166.75 14.56L168.543 14.24L166.75 13.76C160.23 12.16 152.895 12.8 146.538 15.36C144.419 16.16 142.3 17.28 140.507 18.72C138.062 19.04 135.78 19.68 133.498 20.64C130.727 21.76 128.119 23.36 125.837 25.12C125.185 25.6 124.696 26.08 124.044 26.56C123.555 27.04 123.066 27.68 122.577 28.16C122.088 28.8 121.762 29.44 121.273 29.92C116.22 30.88 111.33 33.44 107.744 37.28C105.625 39.68 104.321 42.56 103.343 45.6C102.854 47.52 102.528 49.44 102.528 51.36C100.083 52.16 97.9642 53.92 96.6602 56.16C95.1932 58.56 94.5412 61.44 94.2152 64.16C93.5632 69.44 93.5632 74.88 94.2152 80.32V80.64C92.7482 84.96 91.6073 89.44 91.2812 94.08V97.6C91.4443 98.72 91.6073 100 91.9333 101.12C92.4223 103.36 92.7482 105.6 93.0742 107.84C93.4002 110.08 93.7263 112.32 94.3783 114.56C94.7043 115.68 95.0302 116.8 95.5192 117.92C96.0082 118.88 96.3343 120 96.8233 121.12C98.2903 125.44 99.5942 129.76 100.735 134.24C99.9202 129.76 99.1053 125.28 97.6383 120.8C97.3123 119.68 96.9863 118.56 96.4973 117.44C96.0083 116.32 95.6822 115.36 95.5192 114.24C95.0302 112 94.8673 109.76 94.5413 107.52C94.2153 105.28 93.8892 103.04 93.4002 100.8C93.0742 99.68 92.9113 98.56 92.9113 97.6V94.4C93.0743 90.88 93.8893 87.36 94.8673 84C96.0083 88.64 98.4533 97.12 104.158 103.84C104.158 105.6 104.321 107.36 104.158 109.28C104.158 112.32 103.995 115.36 103.995 118.24C103.995 121.28 103.832 124.32 103.506 127.2C103.343 128.64 103.343 130.24 103.017 131.68C102.691 133.12 102.691 134.72 101.876 136C102.691 134.72 103.017 133.12 103.343 131.68C103.669 130.24 103.995 128.64 104.158 127.2C104.484 124.16 104.81 121.12 105.136 118.24C105.462 115.2 105.462 112.16 105.625 109.12C105.788 106.08 105.625 103.04 105.625 100.16C105.788 94.24 106.603 88.16 108.07 82.4C108.722 79.52 109.7 76.64 111.656 74.4C113.612 72.16 116.22 70.56 119.154 69.6C116.22 70.24 113.286 71.84 111.004 73.92C109.863 75.04 109.048 76.32 108.396 77.76C107.744 79.2 107.255 80.64 106.766 82.08C105.788 84.96 105.299 88 104.81 91.04C104.321 94.08 103.995 97.12 103.832 100.16V101.12C97.1493 92 95.5192 80.32 95.5192 80.16H95.3563C95.0303 77.6 94.8672 75.04 94.7042 72.48C94.5412 69.76 94.7043 67.04 94.8673 64.16C95.0303 61.44 95.5193 58.72 96.8233 56.32C97.9643 54.24 99.7573 52.32 102.202 51.36C102.202 52.48 102.202 53.76 102.365 54.88C102.854 57.92 103.995 61.12 106.277 63.36C108.559 65.76 111.819 66.88 114.916 67.2C121.273 68.16 127.793 66.24 132.52 62.4C129.912 64 127.141 65.28 124.044 65.92C121.11 66.56 118.013 66.56 115.079 66.08C112.145 65.44 109.211 64.48 107.255 62.4C105.299 60.32 104.158 57.44 103.832 54.56C103.017 48.8 104.647 42.56 108.233 37.92C110.189 35.68 112.634 33.76 115.242 32.32C116.872 31.36 118.828 30.72 120.621 30.08C120.295 30.72 120.132 31.2 119.806 31.84C118.665 34.56 118.013 37.6 117.85 40.48C117.687 43.52 117.85 46.4 118.502 49.28C119.154 52.16 120.132 55.04 122.088 57.44C123.066 58.56 124.37 59.68 125.674 60.32C126.978 60.96 128.445 61.44 129.912 61.76C132.846 62.24 135.78 62.08 138.388 60.8C140.018 62.08 141.974 63.2 143.93 64.16C147.19 65.44 150.613 66.24 154.036 66.4C157.459 66.72 160.882 66.56 164.305 66.08C171.151 64.96 177.508 62.56 184.191 61.6C188.429 61.12 192.83 60.8 196.905 61.44L198.861 61.92C198.535 61.76 198.209 61.76 197.883 61.6C200.002 62.08 201.958 62.72 203.751 63.68C209.456 66.72 213.694 72.32 215.976 78.4C216.139 78.72 216.302 79.2 216.302 79.52C217.117 82.4 217.769 85.28 218.095 88.16C218.095 88.48 218.095 88.64 218.258 88.96C218.258 89.92 218.095 91.04 217.932 92C218.095 91.52 218.258 91.2 218.421 90.72C218.584 92.8 218.421 94.88 218.421 96.96C218.421 102.88 219.073 108.96 219.888 114.88C220.377 117.76 221.029 120.8 221.681 123.68C222.333 126.56 222.007 129.6 221.844 132.48C222.007 131.04 222.333 129.6 222.496 128C222.659 126.56 222.496 124.96 222.333 123.52C222.17 122.08 221.844 120.64 221.518 119.04C221.192 117.44 221.029 116.16 220.866 114.56C220.214 108.64 219.725 102.72 219.888 96.8C220.051 93.92 220.051 90.72 219.725 87.84C219.725 87.36 219.562 86.72 219.562 86.24C219.725 85.44 219.725 84.64 219.888 83.84C220.377 81.76 220.377 79.04 220.866 76.48ZM130.401 61.44C127.63 60.64 124.859 59.36 123.392 57.28C121.762 55.04 120.947 52.32 120.295 49.44C119.806 46.72 119.643 43.84 119.806 40.96C120.132 37.12 121.11 33.28 123.066 29.92C123.392 29.92 123.881 29.76 124.37 29.76C124.044 29.76 123.555 29.76 123.229 29.92C124.207 28.48 125.185 27.2 126.652 26.08C128.771 24.16 131.216 22.56 133.824 21.28C135.78 20.32 138.062 19.52 140.181 18.88C136.595 21.44 133.661 24.96 131.705 29.12C130.238 32.32 129.912 35.84 129.749 39.2C129.586 42.56 130.075 46.08 130.89 49.28C131.705 52.48 133.498 55.68 135.78 58.4C136.595 59.36 137.573 60.32 138.714 61.12C135.943 62.08 133.009 62.08 130.401 61.44Z" fill="#1B141C"/>
</g>
<defs>
<clipPath id="clip0_21_209">
<rect width="326" height="320" rx="160" fill="white"/>
</clipPath>
</defs>
</svg>
