<svg width="2789" height="1642" viewBox="0 0 2789 1642" fill="none" xmlns="http://www.w3.org/2000/svg">
<g filter="url(#filter0_b_1336_2356)">
<rect x="4" y="4" width="2781" height="1634" rx="60" fill="#C2EC5B"/>
<rect x="884" y="787" width="265.921" height="207" fill="#C2EC5B"/>
<path d="M841 648H1076.54C1142.24 648 1195.5 701.56 1195.5 767.63V851.37C1195.5 917.44 1142.24 971 1076.54 971H959.96C894.26 971 841 917.44 841 851.37V648Z" fill="black"/>
<path d="M999.283 746.415V740.437C999.283 734.639 1002.31 731.741 1008.36 731.741H1029.19C1034.89 731.741 1037.74 734.639 1037.74 740.437V746.415C1037.74 766.706 1031.69 789.17 1019.58 813.809C1019.94 813.809 1021.18 812.541 1023.32 810.005C1025.45 807.468 1028.13 804.751 1031.33 801.852C1034.53 798.591 1038.27 795.149 1042.55 791.526C1052.87 783.192 1064.09 777.213 1076.2 773.59L1082.6 771.416C1087.95 769.967 1091.51 771.96 1093.29 777.395L1099.7 797.504C1101.48 803.664 1099.52 807.468 1093.82 808.918C1073.52 816.527 1048.78 818.157 1019.58 813.809C1020.65 813.809 1025.81 816.345 1035.07 821.418C1055.01 833.375 1069.43 846.781 1078.33 861.637C1082.25 866.347 1081.71 870.333 1076.73 873.594L1059.64 886.094C1054.3 888.993 1050.2 888.268 1047.35 883.92C1033.82 867.978 1024.56 844.607 1019.58 813.809C1015.66 842.796 1008.19 865.079 997.147 880.659L993.408 886.094C990.203 890.442 986.108 890.805 981.123 887.181L964.566 874.681C958.869 871.42 958.156 867.253 962.429 862.18C974.892 843.339 993.942 827.215 1019.58 813.809C989.669 819.244 966.702 819.063 950.679 813.266L944.27 811.092C938.928 808.918 937.326 805.113 939.463 799.678L945.872 779.025C947.652 773.228 951.391 771.597 957.088 774.134C977.385 778.844 998.215 792.069 1019.58 813.809C1006.05 786.272 999.283 763.807 999.283 746.415Z" fill="white"/>
<path d="M841 645H838V648V851.37C838 919.081 892.587 974 959.96 974H1076.54C1143.91 974 1198.5 919.081 1198.5 851.37V767.63C1198.5 699.919 1143.91 645 1076.54 645H841Z" stroke="#C2EC5B" stroke-width="6"/>
<path d="M1342.07 870.781C1326.42 870.781 1314.26 866.219 1305.56 857.093C1296.98 847.859 1292.69 835.257 1292.69 819.288C1292.69 803.535 1297.09 791.151 1305.89 782.134C1314.8 773.008 1326.86 768.446 1342.07 768.446C1357.49 768.446 1369.55 773.008 1378.24 782.134C1387.04 791.151 1391.44 803.535 1391.44 819.288C1391.44 835.257 1387.15 847.859 1378.57 857.093C1369.99 866.219 1357.82 870.781 1342.07 870.781ZM1342.07 850.575C1359.45 850.575 1368.14 840.146 1368.14 819.288C1368.14 809.728 1366.02 802.286 1361.78 796.963C1357.55 791.64 1350.97 788.978 1342.07 788.978C1333.27 788.978 1326.75 791.64 1322.51 796.963C1318.27 802.286 1316.16 809.728 1316.16 819.288C1316.16 840.146 1324.79 850.575 1342.07 850.575ZM1441.34 851.227C1451.66 851.227 1456.82 844.165 1456.82 830.043C1456.82 822.873 1455.57 817.604 1453.08 814.236C1450.69 810.868 1446.83 809.184 1441.51 809.184C1436.62 809.184 1432.76 810.814 1429.94 814.073C1427.11 817.332 1425.7 821.732 1425.7 827.272V833.302C1425.7 838.734 1427.11 843.079 1429.94 846.338C1432.87 849.597 1436.67 851.227 1441.34 851.227ZM1478.66 830.043C1478.66 843.188 1476.32 853.291 1471.65 860.352C1466.98 867.305 1460.46 870.781 1452.1 870.781C1439.71 870.781 1431.35 863.285 1427 848.294H1425.7V893.269H1403.54V791.259H1425.7V810.814H1427.17C1431.51 796.365 1439.82 789.141 1452.1 789.141C1460.57 789.141 1467.09 792.672 1471.65 799.733C1476.32 806.686 1478.66 816.789 1478.66 830.043ZM1525.78 805.762C1520.68 805.762 1516.71 807.229 1513.89 810.162C1511.06 812.987 1509.38 817.495 1508.84 823.687H1541.1C1540.77 811.737 1535.67 805.762 1525.78 805.762ZM1526.11 870.618C1514.05 870.618 1504.49 867.305 1497.43 860.678C1490.37 853.943 1486.84 844.22 1486.84 831.509C1486.84 818.147 1490.31 807.772 1497.27 800.385C1504.22 792.889 1513.94 789.141 1526.43 789.141C1538.06 789.141 1546.8 792.291 1552.67 798.592C1558.54 804.893 1561.47 813.53 1561.47 824.502C1561.47 827.327 1561.31 830.803 1560.98 834.931H1508.67C1509.32 841.124 1511.06 845.686 1513.89 848.619C1516.82 851.444 1520.95 852.856 1526.27 852.856C1531.05 852.856 1534.53 851.933 1536.7 850.086C1538.98 848.239 1540.72 845.578 1541.92 842.101L1560.49 847.153C1556.47 862.797 1545.01 870.618 1526.11 870.618ZM1595.82 825.48V868.5H1573.65V791.259H1595.33V811.955H1596.79C1599.07 804.567 1602.44 798.918 1606.9 795.007C1611.46 791.096 1616.78 789.141 1622.87 789.141C1630.14 789.141 1635.68 791.531 1639.49 796.311C1643.29 800.982 1645.19 807.609 1645.19 816.191V868.5H1623.03V822.384C1623.03 813.584 1619.12 809.184 1611.3 809.184C1606.62 809.184 1602.88 810.705 1600.05 813.747C1597.23 816.68 1595.82 820.591 1595.82 825.48ZM1699.66 790.119H1684.34V849.271H1700.47C1710.47 849.271 1717.64 846.773 1721.98 841.775C1726.44 836.778 1728.66 829.011 1728.66 818.473C1728.66 808.152 1726.44 800.874 1721.98 796.637C1717.53 792.291 1710.09 790.119 1699.66 790.119ZM1660.88 868.5V770.727H1702.59C1735.62 770.727 1752.13 786.642 1752.13 818.473C1752.13 834.008 1747.73 846.229 1738.93 855.138C1730.13 864.046 1717.91 868.5 1702.27 868.5H1660.88ZM1823.46 868.5L1816.77 846.827H1778.97L1772.29 868.5H1748.01L1782.23 770.727H1814.49L1848.55 868.5H1823.46ZM1788.09 817.658L1784.35 829.717H1811.4L1807.65 817.658C1804.93 808.858 1802.38 799.95 1799.99 790.933H1796.08C1793.91 798.647 1791.24 807.555 1788.09 817.658ZM1893.95 870.781C1878.31 870.781 1866.14 866.219 1857.45 857.093C1848.86 847.859 1844.57 835.257 1844.57 819.288C1844.57 803.535 1848.97 791.151 1857.77 782.134C1866.68 773.008 1878.74 768.446 1893.95 768.446C1909.38 768.446 1921.43 773.008 1930.13 782.134C1938.92 791.151 1943.32 803.535 1943.32 819.288C1943.32 835.257 1939.03 847.859 1930.45 857.093C1921.87 866.219 1909.7 870.781 1893.95 870.781ZM1893.95 850.575C1911.33 850.575 1920.02 840.146 1920.02 819.288C1920.02 809.728 1917.9 802.286 1913.67 796.963C1909.43 791.64 1902.86 788.978 1893.95 788.978C1885.15 788.978 1878.63 791.64 1874.39 796.963C1870.16 802.286 1868.04 809.728 1868.04 819.288C1868.04 840.146 1876.68 850.575 1893.95 850.575Z" fill="black"/>
<rect x="2" y="2" width="2785" height="1638" rx="62" stroke="#C2EC5B" stroke-width="4"/>
</g>
<defs>
<filter id="filter0_b_1336_2356" x="-4" y="-4" width="2797" height="1650" filterUnits="userSpaceOnUse" color-interpolation-filters="sRGB">
<feFlood flood-opacity="0" result="BackgroundImageFix"/>
<feGaussianBlur in="BackgroundImageFix" stdDeviation="2"/>
<feComposite in2="SourceAlpha" operator="in" result="effect1_backgroundBlur_1336_2356"/>
<feBlend mode="normal" in="SourceGraphic" in2="effect1_backgroundBlur_1336_2356" result="shape"/>
</filter>
</defs>
</svg>
