<svg width="1728" height="1000" viewBox="0 0 1728 1000" fill="none" xmlns="http://www.w3.org/2000/svg">
<g clip-path="url(#clip0_35_131)">
<rect width="1728" height="1000" rx="16" fill="black"/>
<g filter="url(#filter0_f_35_131)">
<path d="M604.835 920.718C764.09 310.836 1326.69 258.925 1588.08 309.205C1980.64 354.049 2006.69 -74.01 1695.06 -127.008C1383.43 -180.006 1128.55 -120.893 657.858 353.03C187.163 826.952 107.163 538.522 -59.3473 847.336C-225.858 1156.15 405.766 1683.07 604.835 920.718Z" fill="url(#paint0_linear_35_131)"/>
</g>
<g style="mix-blend-mode:screen" filter="url(#filter1_f_35_131)">
<path d="M722.783 1059.15C856.014 521.26 1326.68 475.477 1545.36 519.822C1873.77 559.372 1895.56 181.846 1634.86 135.104C1374.15 88.3629 1160.92 140.498 767.142 558.473C373.362 976.449 306.435 722.068 167.134 994.426C27.8324 1266.78 556.244 1731.5 722.783 1059.15Z" fill="url(#paint1_linear_35_131)"/>
</g>
<g filter="url(#filter2_f_35_131)">
<path d="M545 507.5C545 629.003 628.5 646.469 424 761.5C280 842.5 216 613.503 216 492C216 370.497 309.125 272 424 272C538.875 272 545 385.997 545 507.5Z" fill="#7357FF"/>
</g>
<g filter="url(#filter3_f_35_131)">
<ellipse cx="511.843" cy="697.276" rx="194.535" ry="129.69" transform="rotate(-20 511.843 697.276)" fill="#2EBAC6"/>
</g>
<rect x="967" y="411" width="85" height="56" rx="20" fill="white" fill-opacity="0.12"/>
<path d="M1002.38 429.896H998.12L992.912 445.044L987.816 429.896H983.224L990.448 450H995.096L1002.38 429.896ZM1010.33 450V431.072H1002.86V434.432H1006.44V450H1010.33ZM1018.41 447.508C1018.41 445.94 1017.34 444.848 1015.8 444.848C1014.26 444.848 1013.17 445.94 1013.17 447.508C1013.17 449.048 1014.26 450.14 1015.8 450.14C1017.34 450.14 1018.41 449.048 1018.41 447.508ZM1019.92 440.564C1019.92 446.808 1022.5 450.28 1027.23 450.28C1031.96 450.28 1034.57 446.808 1034.57 440.564C1034.57 434.292 1031.91 430.792 1027.23 430.792C1022.56 430.792 1019.92 434.292 1019.92 440.564ZM1023.93 440.564C1023.93 436.476 1025.1 434.264 1027.23 434.264C1029.39 434.264 1030.56 436.476 1030.56 440.564C1030.56 444.624 1029.39 446.808 1027.23 446.808C1025.05 446.808 1023.93 444.624 1023.93 440.564Z" fill="white" fill-opacity="0.88"/>
<path d="M945.877 586.324C938.685 586.324 932.34 585.091 926.844 582.625C921.603 580.348 916.923 576.956 913.127 572.685C909.505 568.569 906.683 563.812 904.805 558.661C902.919 553.563 901.953 548.171 901.954 542.736V539.653C901.934 534.107 902.899 528.602 904.805 523.394C906.658 518.276 909.445 513.547 913.025 509.447C916.76 505.232 921.371 501.883 926.535 499.635C931.929 497.237 938.068 496.039 944.952 496.039C953.987 496.039 961.615 498.068 967.838 502.126C973.924 506.048 978.847 511.529 982.094 518C985.405 524.624 987.095 531.94 987.025 539.345V547.667H912.28V533.643H972.076L964.062 540.116C964.062 535.088 963.343 530.773 961.905 527.17C960.466 523.567 958.334 520.81 955.509 518.899C952.68 517.005 949.161 516.055 944.952 516.048C940.637 516.048 936.989 517.024 934.01 518.976C931.03 520.928 928.77 523.779 927.229 527.53C925.688 531.297 924.917 535.895 924.917 541.323C924.917 546.364 925.636 550.756 927.075 554.5C928.352 558.049 930.727 561.099 933.856 563.207C936.938 565.262 940.945 566.289 945.877 566.289C950.397 566.289 954.096 565.416 956.973 563.669C959.85 561.923 961.802 559.765 962.829 557.197H985.484C984.307 562.736 981.824 567.914 978.241 572.3C974.593 576.758 969.947 580.295 964.679 582.625C959.23 585.091 952.963 586.324 945.877 586.324Z" fill="white"/>
<path d="M675 518.822V500.791H735.413V518.822H675ZM723.526 586.324C714.998 586.324 708.114 585.271 702.874 583.165C697.826 581.23 693.72 577.42 691.413 572.531C689.016 567.555 687.809 560.799 687.791 552.265V476.235H711.602L710.755 553.205C710.755 557.219 711.808 560.275 713.914 562.375C716.02 564.474 719.025 565.527 722.93 565.534H735.413V586.34L723.526 586.324Z" fill="white"/>
<path d="M748.215 519.012V500.827H784.123V519.012H748.215ZM769.035 492.52C764.412 492.52 760.996 491.309 758.787 488.888C756.578 486.467 755.475 483.41 755.479 479.718C755.479 475.923 756.585 472.816 758.797 470.394C761.01 467.973 764.426 466.774 769.046 466.798C773.669 466.798 777.085 468.007 779.294 470.425C781.503 472.843 782.606 475.946 782.603 479.734C782.603 483.432 781.496 486.489 779.284 488.903C777.072 491.318 773.656 492.523 769.035 492.52ZM759.429 586.314L759.486 500.837H784.144L784.098 586.314H759.429Z" fill="white"/>
<path d="M999.729 586.324V500.683H1019.3V536.9L1013.91 539.509C1013.91 527.596 1021.38 515.786 1026.47 509.313C1031.55 502.84 1038.95 499.583 1048.58 499.583H1051.82V520.851H1045.66C1038.87 520.851 1034.22 523.379 1029.94 526.322C1025.77 529.189 1019.45 535.472 1019.45 542.35V586.304L999.729 586.324Z" fill="white"/>
<path d="M854.055 588.379C847.172 588.379 841.11 586.915 835.87 583.987C830.61 581.039 826.325 576.62 823.541 571.272C820.561 565.724 818.969 558.943 818.763 550.929L825.287 551.186C825.701 551.199 826.093 551.373 826.38 551.67C826.668 551.968 826.829 552.365 826.828 552.779V585.605H802.124V473.101H826.782V530.278L820.926 537.675C821.234 529.151 822.852 521.985 825.78 516.176C828.709 510.368 832.741 506.001 837.878 503.077C843.016 500.149 848.872 498.684 855.447 498.684C860.827 498.61 866.161 499.688 871.09 501.844C875.688 503.895 879.769 506.949 883.034 510.782C886.417 514.805 889.006 519.433 890.663 524.422C892.504 529.935 893.416 535.716 893.36 541.528V544.919C893.416 550.731 892.504 556.512 890.663 562.025C888.958 567.093 886.279 571.779 882.777 575.819C879.359 579.762 875.126 582.917 870.371 585.066C865.556 587.275 860.117 588.379 854.055 588.379ZM847.582 567.728C851.48 567.82 855.317 566.746 858.602 564.645C861.823 562.49 864.363 559.461 865.922 555.912C867.721 551.919 868.616 547.577 868.542 543.198C868.542 538.376 867.669 534.163 865.922 530.56C864.331 527.062 861.741 524.113 858.478 522.083C855.214 520.054 851.424 519.035 847.582 519.156C843.926 519.149 840.325 520.049 837.103 521.776C833.832 523.507 831.09 526.09 829.166 529.25C827.162 532.487 826.161 536.417 826.161 541.04V546.742C826.161 551.167 827.214 554.943 829.32 558.07C831.338 561.13 834.129 563.603 837.411 565.236C840.557 566.858 844.043 567.712 847.582 567.728Z" fill="white"/>
</g>
<defs>
<filter id="filter0_f_35_131" x="-213" y="-269" width="2247" height="1709" filterUnits="userSpaceOnUse" color-interpolation-filters="sRGB">
<feFlood flood-opacity="0" result="BackgroundImageFix"/>
<feBlend mode="normal" in="SourceGraphic" in2="BackgroundImageFix" result="shape"/>
<feGaussianBlur stdDeviation="63" result="effect1_foregroundBlur_35_131"/>
</filter>
<filter id="filter1_f_35_131" x="-6.10352e-05" y="-23" width="1957" height="1573" filterUnits="userSpaceOnUse" color-interpolation-filters="sRGB">
<feFlood flood-opacity="0" result="BackgroundImageFix"/>
<feBlend mode="normal" in="SourceGraphic" in2="BackgroundImageFix" result="shape"/>
<feGaussianBlur stdDeviation="72" result="effect1_foregroundBlur_35_131"/>
</filter>
<filter id="filter2_f_35_131" x="-32" y="24" width="841.873" height="1002.45" filterUnits="userSpaceOnUse" color-interpolation-filters="sRGB">
<feFlood flood-opacity="0" result="BackgroundImageFix"/>
<feBlend mode="normal" in="SourceGraphic" in2="BackgroundImageFix" result="shape"/>
<feGaussianBlur stdDeviation="124" result="effect1_foregroundBlur_35_131"/>
</filter>
<filter id="filter3_f_35_131" x="99.6926" y="334.402" width="824.301" height="725.749" filterUnits="userSpaceOnUse" color-interpolation-filters="sRGB">
<feFlood flood-opacity="0" result="BackgroundImageFix"/>
<feBlend mode="normal" in="SourceGraphic" in2="BackgroundImageFix" result="shape"/>
<feGaussianBlur stdDeviation="112" result="effect1_foregroundBlur_35_131"/>
</filter>
<linearGradient id="paint0_linear_35_131" x1="1308" y1="-31.9085" x2="410.242" y2="1045.75" gradientUnits="userSpaceOnUse">
<stop stop-color="#5E31BD"/>
<stop offset="1"/>
</linearGradient>
<linearGradient id="paint1_linear_35_131" x1="1311.05" y1="218.977" x2="512.764" y2="1127.94" gradientUnits="userSpaceOnUse">
<stop stop-color="#8D56FF"/>
<stop offset="1" stop-color="#773EF0"/>
</linearGradient>
<clipPath id="clip0_35_131">
<rect width="1728" height="1000" rx="16" fill="white"/>
</clipPath>
</defs>
</svg>
