<svg width="2096" height="1218" viewBox="0 0 2096 1218" fill="none" xmlns="http://www.w3.org/2000/svg">
<g clip-path="url(#clip0_907_2572)">
<rect width="2095.53" height="1218" rx="16" fill="black"/>
<g filter="url(#filter0_f_907_2572)">
<path d="M733.478 1121.43C926.605 378.598 1608.87 315.371 1925.86 376.612C2401.91 431.232 2433.49 -90.1443 2055.59 -154.696C1677.68 -219.247 1368.59 -147.247 797.778 429.99C226.971 1007.23 129.956 655.92 -71.9699 1032.06C-273.896 1408.19 492.069 2049.98 733.478 1121.43Z" fill="url(#paint0_linear_907_2572)"/>
</g>
<g style="mix-blend-mode:screen" filter="url(#filter1_f_907_2572)">
<path d="M876.513 1290.04C1038.08 634.894 1608.86 579.131 1874.05 633.143C2272.31 681.315 2298.73 221.488 1982.58 164.557C1666.42 107.626 1407.84 171.126 930.306 680.22C452.773 1189.31 371.612 879.479 202.682 1211.21C33.7525 1542.94 674.552 2108.97 876.513 1290.04Z" fill="url(#paint1_linear_907_2572)"/>
</g>
<g filter="url(#filter2_f_907_2572)">
<path d="M660.917 618.135C660.917 766.125 762.177 787.399 514.181 927.507C339.554 1026.17 261.941 747.246 261.941 599.256C261.941 451.266 374.873 331.296 514.181 331.296C653.489 331.296 660.917 470.145 660.917 618.135Z" fill="#7357FF"/>
</g>
<g filter="url(#filter3_f_907_2572)">
<ellipse cx="236.031" cy="157.882" rx="236.031" ry="157.882" transform="matrix(0.939211 -0.343341 0.340703 0.940171 345.234 781.885)" fill="#2EBAC6"/>
</g>
<rect x="967" y="411" width="85" height="56" rx="20" fill="white" fill-opacity="0.12"/>
<path d="M1002.38 429.896H998.12L992.912 445.044L987.816 429.896H983.224L990.448 450H995.096L1002.38 429.896ZM1010.33 450V431.072H1002.86V434.432H1006.44V450H1010.33ZM1018.41 447.508C1018.41 445.94 1017.34 444.848 1015.8 444.848C1014.26 444.848 1013.17 445.94 1013.17 447.508C1013.17 449.048 1014.26 450.14 1015.8 450.14C1017.34 450.14 1018.41 449.048 1018.41 447.508ZM1019.92 440.564C1019.92 446.808 1022.5 450.28 1027.23 450.28C1031.96 450.28 1034.57 446.808 1034.57 440.564C1034.57 434.292 1031.91 430.792 1027.23 430.792C1022.56 430.792 1019.92 434.292 1019.92 440.564ZM1023.93 440.564C1023.93 436.476 1025.1 434.264 1027.23 434.264C1029.39 434.264 1030.56 436.476 1030.56 440.564C1030.56 444.624 1029.39 446.808 1027.23 446.808C1025.05 446.808 1023.93 444.624 1023.93 440.564Z" fill="white" fill-opacity="0.88"/>
<path d="M1147.06 714.143C1138.34 714.143 1130.64 712.641 1123.98 709.638C1117.62 706.864 1111.94 702.732 1107.34 697.53C1102.95 692.517 1099.53 686.724 1097.25 680.449C1094.96 674.24 1093.79 667.672 1093.79 661.052V657.298C1093.77 650.543 1094.94 643.837 1097.25 637.494C1099.5 631.261 1102.88 625.5 1107.22 620.506C1111.75 615.372 1117.34 611.293 1123.6 608.555C1130.14 605.635 1137.59 604.175 1145.94 604.175C1156.89 604.175 1166.14 606.647 1173.69 611.59C1181.07 616.366 1187.04 623.043 1190.98 630.924C1194.99 638.992 1197.04 647.903 1196.96 656.922V667.059H1106.31V649.977H1178.83L1169.11 657.861C1169.11 651.737 1168.24 646.481 1166.49 642.093C1164.75 637.705 1162.16 634.347 1158.74 632.019C1155.31 629.712 1151.04 628.555 1145.94 628.546C1140.7 628.546 1136.28 629.735 1132.67 632.113C1129.05 634.491 1126.31 637.963 1124.44 642.531C1122.57 647.119 1121.64 652.72 1121.64 659.331C1121.64 665.471 1122.51 670.821 1124.26 675.38C1125.8 679.704 1128.69 683.419 1132.48 685.986C1136.22 688.489 1141.08 689.74 1147.06 689.74C1152.54 689.74 1157.02 688.677 1160.51 686.549C1164 684.422 1166.37 681.794 1167.61 678.665H1195.09C1193.66 685.413 1190.65 691.72 1186.3 697.061C1181.88 702.491 1176.25 706.8 1169.86 709.638C1163.25 712.641 1155.65 714.143 1147.06 714.143Z" fill="white"/>
<path d="M818.567 631.925V609.963H891.829V631.925H818.567ZM877.413 714.143C867.072 714.143 858.724 712.86 852.37 710.295C846.248 707.938 841.269 703.298 838.471 697.343C835.564 691.282 834.1 683.054 834.079 672.659V580.054H862.954L861.926 673.804C861.926 678.693 863.203 682.416 865.757 684.973C868.312 687.53 871.956 688.812 876.691 688.821H891.829V714.162L877.413 714.143Z" fill="white"/>
<path d="M907.354 632.157V610.007H950.9V632.157H907.354ZM932.603 599.889C926.996 599.889 922.853 598.415 920.174 595.466C917.496 592.516 916.158 588.793 916.162 584.297C916.162 579.675 917.504 575.889 920.187 572.94C922.87 569.991 927.013 568.531 932.615 568.56C938.222 568.56 942.365 570.033 945.044 572.978C947.722 575.923 949.06 579.702 949.056 584.315C949.056 588.821 947.714 592.544 945.031 595.484C942.348 598.425 938.205 599.893 932.603 599.889ZM920.953 714.13L921.022 610.019H950.925L950.868 714.13H920.953Z" fill="white"/>
<path d="M1212.36 714.143V609.832H1236.1V653.944L1229.56 657.122C1229.56 642.612 1238.62 628.227 1244.79 620.344C1250.96 612.46 1259.92 608.493 1271.61 608.493H1275.53V634.397H1268.06C1259.83 634.397 1254.18 637.475 1248.99 641.061C1243.95 644.552 1236.27 652.204 1236.27 660.583V714.118L1212.36 714.143Z" fill="white"/>
<path d="M1035.71 716.646C1027.36 716.646 1020.01 714.862 1013.65 711.296C1007.27 707.705 1002.08 702.323 998.701 695.81C995.087 689.052 993.156 680.793 992.907 671.032L1000.82 671.345C1001.32 671.361 1001.8 671.572 1002.14 671.934C1002.49 672.296 1002.69 672.781 1002.69 673.284V713.267H972.729V576.238H1002.63V645.878L995.53 654.889C995.904 644.506 997.866 635.778 1001.42 628.703C1004.97 621.628 1009.86 616.31 1016.09 612.747C1022.32 609.181 1029.42 607.398 1037.39 607.398C1043.92 607.307 1050.39 608.62 1056.36 611.246C1061.94 613.744 1066.89 617.464 1070.85 622.133C1074.95 627.032 1078.09 632.67 1080.1 638.745C1082.33 645.46 1083.44 652.502 1083.37 659.581V663.711C1083.44 670.791 1082.33 677.832 1080.1 684.547C1078.03 690.719 1074.78 696.426 1070.54 701.347C1066.39 706.15 1061.26 709.992 1055.49 712.61C1049.65 715.3 1043.06 716.646 1035.71 716.646ZM1027.86 691.492C1032.58 691.604 1037.24 690.297 1041.22 687.738C1045.13 685.113 1048.21 681.423 1050.1 677.101C1052.28 672.237 1053.36 666.949 1053.27 661.615C1053.27 655.742 1052.21 650.611 1050.1 646.223C1048.17 641.962 1045.03 638.369 1041.07 635.897C1037.11 633.426 1032.51 632.185 1027.86 632.332C1023.42 632.323 1019.06 633.419 1015.15 635.523C1011.18 637.632 1007.86 640.777 1005.52 644.627C1003.09 648.569 1001.88 653.356 1001.88 658.987V665.932C1001.88 671.322 1003.15 675.921 1005.71 679.729C1008.16 683.457 1011.54 686.468 1015.52 688.458C1019.34 690.433 1023.56 691.473 1027.86 691.492Z" fill="white"/>
</g>
<defs>
<filter id="filter0_f_907_2572" x="-231.504" y="-300.174" width="2671.32" height="2026.63" filterUnits="userSpaceOnUse" color-interpolation-filters="sRGB">
<feFlood flood-opacity="0" result="BackgroundImageFix"/>
<feBlend mode="normal" in="SourceGraphic" in2="BackgroundImageFix" result="shape"/>
<feGaussianBlur stdDeviation="63" result="effect1_foregroundBlur_907_2572"/>
</filter>
<filter id="filter1_f_907_2572" x="30.6277" y="3.37793" width="2311.98" height="1853.13" filterUnits="userSpaceOnUse" color-interpolation-filters="sRGB">
<feFlood flood-opacity="0" result="BackgroundImageFix"/>
<feBlend mode="normal" in="SourceGraphic" in2="BackgroundImageFix" result="shape"/>
<feGaussianBlur stdDeviation="72" result="effect1_foregroundBlur_907_2572"/>
</filter>
<filter id="filter2_f_907_2572" x="13.9414" y="83.296" width="915.438" height="1112.86" filterUnits="userSpaceOnUse" color-interpolation-filters="sRGB">
<feFlood flood-opacity="0" result="BackgroundImageFix"/>
<feBlend mode="normal" in="SourceGraphic" in2="BackgroundImageFix" result="shape"/>
<feGaussianBlur stdDeviation="124" result="effect1_foregroundBlur_907_2572"/>
</filter>
<filter id="filter3_f_907_2572" x="168.539" y="456.133" width="904.337" height="786.298" filterUnits="userSpaceOnUse" color-interpolation-filters="sRGB">
<feFlood flood-opacity="0" result="BackgroundImageFix"/>
<feBlend mode="normal" in="SourceGraphic" in2="BackgroundImageFix" result="shape"/>
<feGaussianBlur stdDeviation="112" result="effect1_foregroundBlur_907_2572"/>
</filter>
<linearGradient id="paint0_linear_907_2572" x1="1586.2" y1="-38.8646" x2="491.878" y2="1269.02" gradientUnits="userSpaceOnUse">
<stop stop-color="#5E31BD"/>
<stop offset="1"/>
</linearGradient>
<linearGradient id="paint1_linear_907_2572" x1="1589.9" y1="266.714" x2="617.047" y2="1369.62" gradientUnits="userSpaceOnUse">
<stop stop-color="#8D56FF"/>
<stop offset="1" stop-color="#773EF0"/>
</linearGradient>
<clipPath id="clip0_907_2572">
<rect width="2095.53" height="1218" rx="16" fill="white"/>
</clipPath>
</defs>
</svg>
